<svg preserveAspectRatio="none" overflow="visible" style="display: block;" width="18" height="18" viewBox="0 0 18 18" fill="none" xmlns="http://www.w3.org/2000/svg">
<g id="icon">
<g id="Bounding box">
</g>
<path id="shape" fill-rule="evenodd" clip-rule="evenodd" d="M2.76481 6.75332C2.84046 7.24279 3.41291 7.65304 4.64639 8.06377L3.45633 9.25383C2.06925 8.69832 1.4445 8.03118 1.28241 6.98243C1.13142 6.00549 1.56723 5.26554 2.4205 4.80568C2.92593 4.53329 3.41366 4.39325 4.45124 4.17774L4.70725 4.12523C5.92295 3.87798 6.41723 3.72932 6.71488 3.4892C6.9598 3.29162 6.97514 3.00531 6.55208 2.2573L7.85772 1.51886C8.60815 2.84569 8.54972 3.93626 7.65669 4.65667C7.11855 5.0908 6.55747 5.27316 5.22339 5.55051L4.60582 5.67883C3.07436 6.01093 2.688 6.25629 2.76481 6.75332ZM13.146 10.1708L11.9812 11.3356C12.9536 11.6277 13.4308 11.8772 13.789 12.1241C14.3566 12.5152 14.6836 13.4483 14.1097 13.9523C13.5778 14.4195 12.3165 14.5714 10.6878 14.395L10.5263 15.8863C12.502 16.1003 14.1153 15.8794 15.0483 15.1634C16.1737 14.2997 16.2949 12.7535 15.176 11.5052C14.7028 10.9774 14.1354 10.5586 13.146 10.1708ZM6.61352 15.0988L15.364 6.34837C16.3891 5.32325 16.3891 3.66119 15.364 2.63606C14.3388 1.61094 12.6768 1.61094 11.6517 2.63606L2.90121 11.3865L1.90259 15.1813C1.75641 15.7367 2.2633 16.2436 2.81876 16.0974L6.61352 15.0988ZM5.83961 13.7514L12.4471 7.14387L10.8562 5.55288L4.24862 12.1604L3.6804 14.3196L5.83961 13.7514ZM14.3033 5.28771L13.5078 6.08321L11.9168 4.49222L12.7123 3.69672C13.1517 3.25738 13.864 3.25738 14.3033 3.69672C14.7426 4.13606 14.7426 4.84837 14.3033 5.28771Z" fill="#394EDB"/>
</g>
</svg>
