<svg width="45" height="50" viewBox="0 0 45 50" fill="none" xmlns="http://www.w3.org/2000/svg">
<path fill-rule="evenodd" clip-rule="evenodd" d="M18.7832 0C21.5161 0 23.8696 0.554485 25.8399 1.67221C27.8258 2.78992 29.3524 4.27913 30.4169 6.13666C31.4971 7.99418 32.0336 10.0436 32.0336 12.2788C32.0334 14.5295 31.4683 16.6317 30.3404 18.5834C29.2283 20.5348 27.6313 22.2445 25.5504 23.7081L23.2073 25.3478L45 49.1155H31.8424L29.2972 46.4529L29.2699 46.4692C27.3162 47.7125 25.2756 48.5959 23.1472 49.1155C21.0182 49.6193 18.9266 49.873 16.877 49.8731C13.3815 49.8731 10.3695 49.2556 7.84317 48.0277C5.31743 46.7998 3.37672 45.1544 2.02638 43.0924C0.6767 41.0307 9.71832e-06 38.755 0 36.2684C0.000118664 34.4584 0.355131 32.8589 1.05412 31.4737C1.75306 30.0738 2.72742 28.7903 3.98163 27.6262C5.23685 26.4612 6.71057 25.3124 8.39478 24.1789L8.46577 24.1303C7.43288 22.7475 6.51998 21.2154 5.7458 19.525C4.90425 17.6521 4.48415 15.6132 4.48414 13.4099C4.48429 10.9553 5.07955 8.71331 6.27021 6.68333C7.46188 4.65252 9.13364 3.03047 11.2786 1.81828C13.4233 0.606575 15.9238 4.35867e-05 18.7832 0ZM14.8124 31.2627C14.2954 31.6788 13.8303 32.1345 13.4197 32.6317C12.8636 33.3244 12.5895 34.2248 12.5895 35.3268C12.5898 36.239 12.7999 37.0196 13.2286 37.6646C13.6575 38.3097 14.2636 38.8065 15.0418 39.1527C15.836 39.4987 16.7688 39.6723 17.8328 39.6723C19.2246 39.6719 20.6084 39.3649 22.0002 38.7956L14.8124 31.2627ZM18.7832 10.2928C18.037 10.2928 17.3952 10.4374 16.8552 10.7204C16.315 10.988 15.8899 11.3633 15.588 11.8513C15.3021 12.3392 15.1621 12.9225 15.1621 13.5992C15.1621 14.5278 15.4305 15.4807 15.9704 16.4566C16.3542 17.1387 16.8554 17.8487 17.4396 18.6104L19.4496 17.3766C20.5618 16.6839 21.319 15.9681 21.7162 15.2282C22.113 14.473 22.3115 13.8026 22.3115 13.2205C22.3112 12.4504 22.0246 11.7669 21.454 11.1695C20.882 10.5713 19.9907 10.2771 18.7832 10.2928Z" fill="#394EDB"/>
<path d="M38.5479 23.1703C42.1109 23.1703 44.9993 26.0322 44.9994 29.5624C44.9994 33.0926 42.1109 35.9545 38.5479 35.9545C34.9849 35.9545 32.0965 33.0926 32.0965 29.5624C32.0965 26.0322 34.9849 23.1703 38.5479 23.1703Z" fill="#394EDB"/>
</svg>
