<svg width="128" height="128" viewBox="0 0 128 128" fill="none" xmlns="http://www.w3.org/2000/svg">
<mask id="mask0_2159_2984" style="mask-type:luminance" maskUnits="userSpaceOnUse" x="19" y="14" width="90" height="100">
<path d="M108.308 14.7692H19.6923V113.231H108.308V14.7692Z" fill="white"/>
</mask>
<g mask="url(#mask0_2159_2984)">
<path d="M96.2304 64C96.8414 63.5958 97.4676 63.2084 98.1071 62.8392L99.8307 61.8442C107.533 57.3972 110.173 47.5483 105.726 39.8461C101.279 32.1441 91.4295 29.5049 83.7278 33.9519L82.0037 34.9473C73.89 39.6316 64.4141 40.9255 55.5476 38.8294C55.2394 41.5215 54.6866 44.1594 53.9062 46.7147C64.6819 49.2063 76.1778 47.6082 86.0298 41.9203L87.7534 40.9249C91.6052 38.7014 96.5288 40.0209 98.753 43.8721C100.975 47.7231 99.6564 52.6474 95.8051 54.8707L94.0815 55.8661C92.612 56.7148 91.2025 57.6404 89.858 58.6363C91.7499 60.644 93.8831 62.4478 96.2304 64Z" fill="#0F172A"/>
<path d="M55.7908 92.2194C53.029 92.9136 50.3365 93.9681 47.7839 95.3825V96.2081C47.7839 105.102 54.9938 112.311 63.8873 112.311C72.7808 112.311 79.9907 105.102 79.9907 96.2081V94.2177C79.9907 85.8883 82.85 77.9666 87.8755 71.6518C85.7054 70.0277 83.6938 68.2312 81.8565 66.2881C75.5402 74.0621 71.939 83.8837 71.939 94.2177V96.2081C71.939 100.655 68.3343 104.26 63.8873 104.26C59.4408 104.26 55.8356 100.655 55.8356 96.2081V94.2177C55.8356 93.5486 55.8208 92.883 55.7908 92.2194Z" fill="#0F172A"/>
<path d="M45.7709 34.947C46.4112 35.3168 47.0602 35.6654 47.7166 35.993C47.5453 38.8018 47.0498 41.5508 46.2569 44.193C44.7216 43.5263 43.2151 42.7689 41.7451 41.9202L40.0212 40.9248C36.1703 38.7016 31.2459 40.021 29.0224 43.872C26.7991 47.7231 28.1185 52.6474 31.9695 54.8707L33.6934 55.8661C43.5445 61.5538 50.6757 70.7087 53.9062 81.2855C51.3034 81.8871 48.7424 82.7279 46.2569 83.8071C43.6387 75.0814 37.7803 67.523 29.6675 62.8392L27.9436 61.8437C20.2415 57.3972 17.6025 47.5484 22.0494 39.8461C26.4963 32.144 36.345 29.505 44.0471 33.9518L45.7709 34.947Z" fill="#0F172A"/>
<path d="M43.9253 64C42.1026 62.047 40.0943 60.2491 37.9167 58.6363C44.166 52.0059 47.7838 43.1517 47.7838 33.7822V31.7917C47.7838 22.898 54.9937 15.6882 63.8873 15.6882C72.7813 15.6882 79.9907 22.898 79.9907 31.7917V33.7822C79.9907 34.5226 80.0138 35.2597 80.0581 35.9931C77.5404 37.2493 74.9115 38.1948 72.227 38.8295C72.0364 37.1654 71.939 35.4808 71.939 33.7822V31.7917C71.939 27.3449 68.3343 23.74 63.8873 23.74C59.4408 23.74 55.8356 27.3449 55.8356 31.7917V33.7822C55.8356 45.1588 51.4718 55.9138 43.9253 64Z" fill="#0F172A"/>
<path d="M44.0471 94.0479C36.345 98.4954 26.4963 95.8561 22.0494 88.154C17.6025 80.4518 20.2415 70.6032 27.9436 66.1562L28.6537 65.7461C31.1561 67.2491 33.416 69.0534 35.398 71.098C34.8391 71.4549 34.271 71.8005 33.6934 72.1338L31.9695 73.1292C28.1185 75.3525 26.7991 80.277 29.0224 84.1279C31.2459 87.9792 36.1703 89.2986 40.0212 87.0753L41.7453 86.0799C51.5973 80.3918 63.0932 78.7937 73.8688 81.2853C73.0885 83.8404 72.5356 86.4787 72.227 89.1706C63.361 87.0743 53.8846 88.3686 45.7711 93.0529L44.0471 94.0479Z" fill="#0F172A"/>
<path d="M80.0581 92.0074C80.7148 92.3348 81.3637 92.6834 82.0042 93.0531L83.7278 94.0481C91.4294 98.4946 101.279 95.8563 105.726 88.1541C110.173 80.452 107.533 70.6029 99.8316 66.1564L98.1071 65.1609C90.8962 60.997 85.4651 54.562 82.5088 47.0544C80.0172 48.1217 77.4558 48.9652 74.8544 49.5853C78.429 58.9401 85.1333 66.9677 94.0815 72.134L95.805 73.1294C99.6564 75.3527 100.976 80.2772 98.753 84.1281C96.5297 87.9794 91.6052 89.2988 87.7539 87.0755L86.0298 86.0801C84.5598 85.2313 83.0533 84.4737 81.5183 83.8071C80.7252 86.4493 80.2294 89.1983 80.0581 92.0074Z" fill="#0F172A"/>
</g>
</svg>
