<svg width="64" height="192" viewBox="0 0 64 192" fill="none" xmlns="http://www.w3.org/2000/svg">
<path d="M-8.39258e-06 0L0 192L64 192L64 -2.79753e-06L-8.39258e-06 0Z" fill="none"/>
<path d="M21.5654 108.36C21.5654 111.192 22.8855 114.42 25.5137 116.388L21.9855 116.388L21.9855 123.156L46.623 123.156L46.623 116.388L32.6061 116.388C30.086 116.388 27.3978 114.432 27.3978 110.808C27.3978 108.012 29.3419 105.108 32.6061 105.108L46.623 105.108L46.623 98.3403L31.346 98.3403C25.6817 98.3523 21.5654 102.408 21.5654 108.36Z" fill="white"/>
<path d="M21.9854 50.2803L38.7624 56.3883L21.9854 62.5083L21.9854 70.2363L46.6109 60.0963L46.6109 52.6923L21.9854 42.5523L21.9854 50.2803Z" fill="white"/>
<path d="M39.0385 130.344C41.1507 133.188 41.6427 134.82 41.6427 137.412C41.6427 139.752 40.9226 141.576 39.6506 142.872L32.4741 125.58C29.7979 125.952 27.4098 126.972 25.5977 128.532C22.9575 130.8 21.5654 134.172 21.5654 138.264C21.5654 145.704 27.0498 151.308 34.2982 151.308C41.7387 151.308 47.031 145.692 47.031 137.52C47.031 132.948 44.8589 128.268 42.3267 126.072L39.0385 130.344ZM29.4019 143.34C27.8538 142.188 26.9418 140.352 26.9418 138.132C26.9418 135.696 28.3339 133.848 30.386 132.888L35.2943 144.708C32.7861 145.032 30.818 144.396 29.4019 143.34Z" fill="white"/>
<path d="M40.4066 151.956L40.4066 167.328L14.6169 167.328L14.6169 174.18L46.6229 174.18L46.6229 151.956L40.4066 151.956Z" fill="white"/>
<path d="M47.031 30.4082C47.031 37.8002 41.5227 43.5962 34.2982 43.5962C27.1578 43.5962 21.5654 37.7642 21.5654 30.3122C21.5654 22.9202 27.0738 17.1242 34.2982 17.1242C41.4387 17.1242 47.031 22.9562 47.031 30.4082ZM27.3618 30.4082C27.3618 34.1882 30.23 36.9242 34.2982 36.9242C38.1865 36.9242 41.2347 34.0202 41.2347 30.3122C41.2347 26.5322 38.2945 23.7962 34.2982 23.7962C30.41 23.7962 27.3618 26.7002 27.3618 30.4082Z" fill="white"/>
<path d="M47.031 82.4882C47.031 89.8803 41.5227 95.6763 34.2982 95.6763C27.1578 95.6763 21.5654 89.8443 21.5654 82.3922C21.5654 75.0002 27.0738 69.2042 34.2982 69.2042C41.4387 69.2042 47.031 75.0362 47.031 82.4882ZM27.3618 82.4882C27.3618 86.2683 30.23 89.0043 34.2982 89.0043C38.1865 89.0043 41.2347 86.1002 41.2347 82.3922C41.2347 78.6122 38.2945 75.8762 34.2982 75.8762C30.41 75.8762 27.3618 78.7802 27.3618 82.4882Z" fill="white"/>
</svg>
