<svg width="128" height="128" viewBox="0 0 128 128" fill="none" xmlns="http://www.w3.org/2000/svg">
<mask id="mask0_2159_2914" style="mask-type:luminance" maskUnits="userSpaceOnUse" x="19" y="14" width="90" height="100">
<path d="M108.308 14.7692H19.6923V113.231H108.308V14.7692Z" fill="white"/>
</mask>
<g mask="url(#mask0_2159_2914)">
<path d="M80.0581 92.0071C80.0135 92.7402 79.9908 93.4777 79.9908 94.2181V96.2083C79.9906 105.102 72.7807 112.312 63.8872 112.312C54.9938 112.312 47.7839 105.102 47.7837 96.2083V95.3821C50.3363 93.9678 53.0288 92.9132 55.7906 92.2191C55.8206 92.8827 55.8355 93.549 55.8355 94.2181V96.2083C55.8356 100.655 59.4408 104.26 63.8872 104.26C68.3342 104.26 71.9389 100.655 71.939 96.2083V94.2181C71.939 92.401 72.0532 90.5997 72.271 88.8226C72.2568 88.9387 72.2404 89.0549 72.2271 89.1712C63.3611 87.075 53.8845 88.3688 45.771 93.053L44.0474 94.0482C36.3453 98.4956 26.4963 95.8566 22.0494 88.1546C17.6024 80.4524 20.2417 70.6036 27.9439 66.1566L28.6539 65.7464C31.1561 67.2494 33.4161 69.0535 35.398 71.098C34.8391 71.4549 34.2705 71.8008 33.6929 72.1341L31.9693 73.1292C28.1183 75.3525 26.7988 80.2774 29.022 84.1282C31.2455 87.9796 36.1702 89.2988 40.021 87.0755L41.7456 86.0804C43.2592 85.2065 44.8115 84.4291 46.3941 83.7484C46.3484 83.768 46.302 83.7871 46.2564 83.8069C43.6382 75.0814 37.7802 67.523 29.6675 62.8392L27.9439 61.8431C20.2419 57.3966 17.6027 47.5483 22.0494 39.846C26.4963 32.144 36.3453 29.5047 44.0474 33.9515L45.771 34.9466C46.4103 35.3158 47.0582 35.6635 47.7134 35.9905C47.758 35.258 47.7837 34.5213 47.7837 33.7816V31.7913C47.7837 22.8977 54.9937 15.6878 63.8872 15.6878C72.7813 15.6878 79.9908 22.8977 79.9908 31.7913V33.7816C79.9908 34.5209 80.013 35.2572 80.0572 35.9896C80.7134 35.6622 81.3633 35.3162 82.0035 34.9466L83.7281 33.9515C91.4297 29.5047 101.279 32.144 105.725 39.846C110.172 47.5482 107.533 57.397 99.8306 61.8441L98.107 62.8392C97.4677 63.2083 96.8408 63.5943 96.23 63.9984C96.8415 64.4029 97.467 64.7909 98.107 65.1605L99.8316 66.1566C107.533 70.6031 110.172 80.4525 105.725 88.1546C101.279 95.8563 91.4295 98.4943 83.7281 94.0482L82.0044 93.053C81.3639 92.6833 80.7149 92.3345 80.0581 92.0071ZM72.399 87.8626C72.3787 88.0021 72.3583 88.1417 72.3394 88.2816C72.3583 88.1417 72.3787 88.0021 72.399 87.8626ZM98.7535 43.8714C96.5293 40.0203 91.6052 38.7008 87.7535 40.9241L86.0298 41.9202C76.1778 47.6082 64.6814 49.2058 53.9058 46.7142C53.9265 46.6464 53.945 46.578 53.9654 46.5101C52.0075 53.0325 48.5705 59.0219 43.9253 63.9993C43.8592 63.9285 43.7908 63.8598 43.7242 63.7894C48.4215 68.757 51.9093 74.749 53.9058 81.2855C53.7985 81.3103 53.6917 81.337 53.5845 81.3626C60.2479 79.7692 67.1963 79.7427 73.8687 81.2855C73.8483 81.3522 73.8302 81.4198 73.8101 81.4866C75.4767 75.9362 78.2137 70.7714 81.856 66.2884C83.6933 68.2315 85.7054 70.0275 87.8755 71.6517C85.0084 75.2545 82.8474 79.3808 81.5191 83.8069C83.0539 84.4735 84.56 85.2318 86.0298 86.0804L87.7535 87.0755C91.6047 89.2987 96.5291 87.9793 98.7525 84.1282C100.976 80.2774 99.6565 75.3525 95.8052 73.1292L94.0816 72.1341C85.1334 66.9678 78.4287 58.9401 74.854 49.5853C77.4553 48.9652 80.0168 48.1212 82.5083 47.054C84.1953 51.3381 86.6895 55.2722 89.8589 58.6351C91.2031 57.6394 92.6124 56.7141 94.0816 55.8655L95.8052 54.8704C99.6565 52.6471 100.976 47.7224 98.7535 43.8714ZM72.5386 86.9661C72.5216 87.0686 72.5041 87.1711 72.4878 87.2737C72.5041 87.1711 72.5216 87.0686 72.5386 86.9661ZM81.2115 84.8939C81.05 85.5 80.9031 86.111 80.773 86.7269C80.9031 86.111 81.05 85.4999 81.2115 84.8939ZM72.7212 85.9378C72.6994 86.0523 72.6777 86.1668 72.6568 86.2816C72.6777 86.1668 72.6994 86.0523 72.7212 85.9378ZM72.9224 84.9398C72.8886 85.0977 72.8559 85.2559 72.8238 85.4144C72.8559 85.2559 72.8886 85.0977 72.9224 84.9398ZM73.1275 84.0306C73.0972 84.1586 73.0678 84.2869 73.0386 84.4153C73.0678 84.2869 73.0972 84.1586 73.1275 84.0306ZM73.3589 83.096C73.3316 83.2013 73.3054 83.3069 73.2789 83.4124C73.3054 83.3069 73.3316 83.2013 73.3589 83.096ZM73.6402 82.0628C73.6004 82.2021 73.5624 82.342 73.524 82.4818C73.5624 82.342 73.6004 82.2021 73.6402 82.0628ZM96.0083 63.8499C96.0667 63.8891 96.1245 63.9292 96.1831 63.9681C96.1245 63.9292 96.0667 63.8891 96.0083 63.8499ZM95.4302 63.4544C95.485 63.4928 95.5402 63.5306 95.5953 63.5687C95.5402 63.5306 95.485 63.4928 95.4302 63.4544ZM43.4058 63.4554C43.2853 63.3306 43.1636 63.2068 43.0415 63.0833C43.1636 63.2068 43.2853 63.3306 43.4058 63.4554ZM94.772 62.9808C94.8183 63.0148 94.8642 63.0495 94.9107 63.0833C94.8642 63.0495 94.8183 63.0148 94.772 62.9808ZM42.6753 62.7161C42.5522 62.5945 42.4279 62.4741 42.3033 62.3538C42.4279 62.4741 42.5522 62.5945 42.6753 62.7161ZM94.2007 62.554C94.2321 62.578 94.264 62.6014 94.2955 62.6253C94.264 62.6014 94.2321 62.578 94.2007 62.554ZM41.9527 62.0179C41.8151 61.888 41.6761 61.7594 41.5367 61.6312C41.6761 61.7594 41.8151 61.888 41.9527 62.0179ZM92.9683 61.5667C93.0245 61.6137 93.0808 61.6606 93.1372 61.7073C93.0808 61.6606 93.0245 61.6137 92.9683 61.5667ZM41.2046 61.3275C41.0615 61.1984 40.9169 61.0709 40.772 60.9437C40.9169 61.0709 41.0615 61.1984 41.2046 61.3275ZM90.6744 59.473C91.1054 59.9016 91.5478 60.32 92.0015 60.7278C91.5478 60.32 91.1053 59.9017 90.6744 59.473ZM40.4341 60.6487C40.2922 60.5266 40.149 60.4059 40.0054 60.2855C40.149 60.4059 40.2922 60.5266 40.4341 60.6487ZM39.6324 59.9759C39.4968 59.8647 39.3603 59.7545 39.2232 59.6448C39.3603 59.7545 39.4968 59.8647 39.6324 59.9759ZM38.8326 59.3353C38.6916 59.2251 38.5492 59.1167 38.4068 59.0081C38.5492 59.1167 38.6916 59.2251 38.8326 59.3353ZM89.9615 58.7425C90.1235 58.913 90.2872 59.0819 90.4527 59.2493C90.2872 59.0819 90.1234 58.913 89.9615 58.7425ZM40.021 40.9241C36.1702 38.7011 31.2455 40.0205 29.022 43.8714C26.7987 47.7224 28.1184 52.6471 31.9693 54.8704L33.6929 55.8655C35.1958 56.7332 36.6353 57.6826 38.0074 58.7044C37.977 58.6818 37.947 58.6586 37.9165 58.636C41.7801 54.5369 44.6355 49.587 46.2544 44.1917C44.72 43.5253 43.2139 42.7685 41.7447 41.9202L40.021 40.9241ZM46.2789 44.1116C46.3559 43.8525 46.4302 43.5925 46.5015 43.3314C46.4301 43.5925 46.3559 43.8525 46.2789 44.1116ZM46.563 43.1077C46.6384 42.825 46.7103 42.5411 46.7789 42.2562C46.7103 42.5411 46.6384 42.825 46.563 43.1077ZM46.856 41.9202C46.8987 41.7351 46.9402 41.5496 46.98 41.3636C46.9402 41.5496 46.8987 41.7351 46.856 41.9202ZM47.0689 40.9349C47.1077 40.7422 47.1455 40.5493 47.1812 40.3558C47.1455 40.5493 47.1077 40.7422 47.0689 40.9349ZM47.2701 39.8646C47.2757 39.8317 47.2812 39.7988 47.2867 39.7659C47.2812 39.7988 47.2757 39.8317 47.2701 39.8646ZM63.8872 23.7396C59.4407 23.7396 55.8355 27.3446 55.8355 31.7913V33.7816C55.8355 35.5238 55.7313 37.2516 55.5308 38.9573C55.5358 38.9146 55.5425 38.8721 55.5474 38.8294C61.0295 40.1254 66.7441 40.1225 72.2261 38.8265C72.0358 37.1632 71.939 35.4792 71.939 33.7816V31.7913C71.939 27.3446 68.3343 23.7396 63.8872 23.7396ZM47.4039 39.0159C47.4113 38.9649 47.4171 38.9137 47.4244 38.8626C47.4171 38.9137 47.4113 38.9649 47.4039 39.0159ZM47.6841 36.4476C47.6875 36.401 47.6906 36.3545 47.6939 36.3079C47.6906 36.3545 47.6875 36.401 47.6841 36.4476Z" fill="url(#paint0_linear_2159_2914)"/>
</g>
<defs>
<linearGradient id="paint0_linear_2159_2914" x1="19.8893" y1="15.6878" x2="32.5291" y2="121.447" gradientUnits="userSpaceOnUse">
<stop stop-color="#AD1A98"/>
<stop offset="1" stop-color="#3768C7"/>
</linearGradient>
</defs>
</svg>
