<svg width="144" height="144" viewBox="0 0 144 144" fill="none" xmlns="http://www.w3.org/2000/svg">
<g clip-path="url(#clip0_2159_2663)">
<rect width="144" height="144" rx="72" fill="#E1251B"/>
<path fill-rule="evenodd" clip-rule="evenodd" d="M-0.339203 143.661L18.7426 124.579C17.9793 123.663 17.5201 122.485 17.5201 121.2L17.5201 120.48L16.8001 120.48C13.8841 120.48 11.5201 118.116 11.5201 115.2L11.5201 90.4801L0.000100865 90.4801L0.000100978 89.5201L11.5201 89.5201L11.5201 72.4801L0.000101866 72.4801L0.000101979 71.5201L11.5201 71.5201L11.5201 54.48L0.000102868 54.48L0.000102981 53.5201L11.5201 53.5201L11.5201 28.8002C11.5201 25.8841 13.8841 23.5202 16.8001 23.5202L17.5201 23.5202L17.5201 22.8001C17.5201 21.5149 17.9793 20.3369 18.7425 19.4213L-0.339294 0.339475L0.339528 -0.339347L19.4214 18.7425C20.3369 17.9792 21.5149 17.5201 22.8001 17.5201L23.5202 17.5201L23.5202 16.8C23.5202 13.8839 25.8841 11.52 28.8002 11.52L53.5201 11.52L53.5201 6.37635e-05L54.4801 6.38169e-05L54.4801 11.52L71.5201 11.52L71.5201 6.37814e-05L72.4801 6.38349e-05L72.4801 11.52L89.5201 11.52L89.5201 6.37696e-05L90.4801 6.3823e-05L90.4801 11.52L115.2 11.52C118.116 11.52 120.48 13.8839 120.48 16.8L120.48 17.5201L121.2 17.5201C122.485 17.5201 123.663 17.9793 124.579 18.7425L143.661 -0.339347L144.34 0.339475L125.258 19.4214C126.021 20.337 126.48 21.5149 126.48 22.8001L126.48 23.5202L127.2 23.5202C130.116 23.5202 132.48 25.8841 132.48 28.8002L132.48 53.5201L144 53.5201L144 54.4801L132.48 54.4801L132.48 71.5201L144 71.5201L144 72.4801L132.48 72.4801L132.48 89.5201L144 89.5201L144 90.4801L132.48 90.4801L132.48 115.2C132.48 118.116 130.116 120.48 127.2 120.48L126.48 120.48L126.48 121.2C126.48 122.485 126.021 123.663 125.258 124.579L144.339 143.661L143.661 144.339L124.579 125.258C123.663 126.021 122.485 126.48 121.2 126.48L120.48 126.48L120.48 127.2C120.48 130.116 118.116 132.48 115.2 132.48L90.4801 132.48L90.4801 144L89.5201 144L89.5201 132.48L72.4801 132.48L72.4801 144L71.5201 144L71.5201 132.48L54.4801 132.48L54.4801 144L53.5201 144L53.5201 132.48L28.8002 132.48C25.8841 132.48 23.5202 130.116 23.5202 127.2L23.5202 126.48L22.8001 126.48C21.5149 126.48 20.337 126.021 19.4214 125.258L0.339615 144.339L-0.339203 143.661ZM124.575 123.897C125.167 123.158 125.52 122.22 125.52 121.2L125.52 120.48L121.159 120.48L124.575 123.897ZM120.48 121.159L123.897 124.575C123.158 125.167 122.22 125.52 121.2 125.52L120.48 125.52L120.48 121.159ZM119.52 118.841L119.52 108.636C118.044 110.547 116.456 112.367 114.765 114.086L119.52 118.841ZM114.086 114.765L118.841 119.52L108.636 119.52C110.547 118.044 112.367 116.456 114.086 114.765ZM114.086 113.407C116.042 111.418 117.859 109.292 119.52 107.043L119.52 90.4801L91.1589 90.4801L114.086 113.407ZM90.4801 91.1589L113.407 114.086C111.418 116.042 109.292 117.859 107.043 119.52L90.4801 119.52L90.4801 91.1589ZM89.5201 88.8412L89.5201 72.4801L73.1589 72.4801L89.5201 88.8412ZM72.4801 73.1589L88.8413 89.5201L72.4801 89.5201L72.4801 73.1589ZM71.5201 70.8412L71.5201 54.4801L55.1589 54.4801L71.5201 70.8412ZM54.4801 55.1589L70.8413 71.5201L54.4801 71.5201L54.4801 55.1589ZM53.5201 52.8412L53.5201 24.4802L36.9567 24.4802C34.7082 26.1411 32.5817 27.9578 30.5933 29.9144L53.5201 52.8412ZM29.9144 30.5932L52.8413 53.5201L24.4802 53.5201L24.4802 36.9567C26.1411 34.7082 27.9579 32.5817 29.9144 30.5932ZM29.9144 29.2356C31.6328 27.5443 33.4526 25.9559 35.3638 24.4802L25.159 24.4801L29.9144 29.2356ZM24.4802 25.159L29.2356 29.9144C27.5444 31.6327 25.9559 33.4526 24.4802 35.3639L24.4802 25.159ZM23.5202 22.8413L23.5202 18.4801L22.8001 18.4801C21.7801 18.4801 20.8427 18.8336 20.1036 19.4247L23.5202 22.8413ZM19.4248 20.1036L22.8414 23.5202L18.4801 23.5202L18.4801 22.8001C18.4801 21.7801 18.8336 20.8426 19.4248 20.1036ZM22.8001 125.52C21.7801 125.52 20.8427 125.167 20.1037 124.575L23.5202 121.159L23.5202 125.52L22.8001 125.52ZM19.4248 123.897L22.8413 120.48L18.4801 120.48L18.4801 121.2C18.4801 122.22 18.8336 123.158 19.4248 123.897ZM35.3643 119.52L25.1589 119.52L29.9146 114.765C31.633 116.456 33.4529 118.044 35.3643 119.52ZM24.4802 118.841L29.2357 114.086C27.5444 112.367 25.9559 110.547 24.4802 108.636L24.4802 118.841ZM36.9572 119.52C34.7086 117.859 32.582 116.042 30.5934 114.086L53.5201 91.159L53.5201 119.52L36.9572 119.52ZM29.9146 113.407L52.8414 90.4801L24.4802 90.4801L24.4802 107.043C26.1412 109.292 27.9579 111.418 29.9146 113.407ZM71.5201 89.5201L55.159 89.5201L71.5201 73.159L71.5201 89.5201ZM54.4801 88.8413L70.8414 72.4801L54.4801 72.4801L54.4801 88.8413ZM89.5201 71.5201L73.159 71.5201L89.5201 55.159L89.5201 71.5201ZM72.4801 70.8413L88.8414 54.4801L72.4801 54.4801L72.4801 70.8413ZM119.52 53.5201L91.159 53.5201L114.086 30.5933C116.042 32.5818 117.859 34.7083 119.52 36.9569L119.52 53.5201ZM90.4801 52.8413L113.407 29.9144C111.419 27.9578 109.292 26.1411 107.044 24.4802L90.4801 24.4802L90.4801 52.8413ZM119.52 35.364C118.044 33.4527 116.456 31.6328 114.765 29.9144L119.52 25.1589L119.52 35.364ZM114.086 29.2356L118.841 24.4802L108.636 24.4802C110.548 25.9559 112.367 27.5443 114.086 29.2356ZM125.52 23.5202L121.159 23.5202L124.575 20.1036C125.167 20.8427 125.52 21.7801 125.52 22.8001L125.52 23.5202ZM120.48 22.8412L123.897 19.4248C123.158 18.8336 122.22 18.4801 121.2 18.4801L120.48 18.4801L120.48 22.8412ZM131.52 89.5201L131.52 79.6257C131.089 83.0205 130.375 86.3268 129.402 89.5201L131.52 89.5201ZM129.1 90.4801L131.52 90.4801L131.52 115.2C131.52 117.586 129.586 119.52 127.2 119.52L126.48 119.52L126.48 97.1727C127.482 95.0085 128.358 92.7745 129.1 90.4801ZM128.397 89.5201C130.07 84.1299 130.991 78.4091 131.038 72.4801L126.48 72.4801L126.48 89.5201L128.397 89.5201ZM126.48 90.4801L128.09 90.4801C127.608 91.9434 127.071 93.3815 126.48 94.7918L126.48 90.4801ZM125.52 89.5201L125.52 72.4801L120.48 72.4801L120.48 89.5201L125.52 89.5201ZM120.48 90.4801L125.52 90.4801L125.52 96.9599C124.087 100.028 122.398 102.952 120.48 105.705L120.48 90.4801ZM119.52 89.5201L119.52 72.4801L90.4801 72.4801L90.4801 89.5201L119.52 89.5201ZM72.4801 90.4801L89.5201 90.4801L89.5201 119.52L72.4801 119.52L72.4801 90.4801ZM54.4801 90.4801L71.5201 90.4801L71.5201 119.52L54.4801 119.52L54.4801 90.4801ZM53.5201 89.5201L53.5201 72.4801L24.4802 72.4801L24.4802 89.5201L53.5201 89.5201ZM23.5202 89.5201L23.5202 72.4801L18.4801 72.4801L18.4801 89.5201L23.5202 89.5201ZM18.4801 90.4801L23.5202 90.4801L23.5202 105.705C21.6024 102.952 19.9133 100.028 18.4801 96.9597L18.4801 90.4801ZM17.5201 89.5201L17.5201 72.4801L12.962 72.4801C13.0093 78.4091 13.9304 84.1299 15.6031 89.5201L17.5201 89.5201ZM15.9101 90.4801L17.5201 90.4801L17.5201 94.7916C16.9294 93.3814 16.3919 91.9434 15.9101 90.4801ZM14.5984 89.5201C13.625 86.3267 12.9107 83.0204 12.4801 79.6256L12.4801 89.5201L14.5984 89.5201ZM12.4801 90.4801L14.9 90.4801C15.642 92.7745 16.5185 95.0084 17.5201 97.1725L17.5201 119.52L16.8001 119.52C14.4143 119.52 12.4801 117.586 12.4801 115.2L12.4801 90.4801ZM12.4801 64.3744L12.4801 54.48L14.5984 54.48C13.625 57.6733 12.9107 60.9796 12.4801 64.3744ZM12.962 71.5201C13.0092 65.591 13.9304 59.8702 15.603 54.4801L17.5201 54.4801L17.5201 71.5201L12.962 71.5201ZM15.91 53.5201L17.5201 53.5201L17.5201 49.2083C16.9294 50.6186 16.3919 52.0567 15.91 53.5201ZM18.4801 71.5201L18.4801 54.4801L23.5202 54.4801L23.5202 71.5201L18.4801 71.5201ZM18.4801 53.5201L23.5202 53.5201L23.5202 38.2949C21.6025 41.0481 19.9133 43.9724 18.4801 47.0402L18.4801 53.5201ZM24.4802 71.5201L24.4802 54.4801L53.5201 54.4801L53.5201 71.5201L24.4802 71.5201ZM54.4801 53.5201L71.5201 53.5201L71.5201 24.4802L54.4801 24.4802L54.4801 53.5201ZM72.4801 53.5201L89.5201 53.5201L89.5201 24.4802L72.4801 24.4802L72.4801 53.5201ZM90.4801 71.5201L90.4801 54.4801L119.52 54.4801L119.52 71.5201L90.4801 71.5201ZM120.48 71.5201L120.48 54.4801L125.52 54.4801L125.52 71.5201L120.48 71.5201ZM120.48 53.5201L125.52 53.5201L125.52 47.0401C124.087 43.9724 122.398 41.0482 120.48 38.2951L120.48 53.5201ZM126.48 71.5201L126.48 54.4801L128.397 54.4801C130.07 59.8702 130.991 65.591 131.038 71.5201L126.48 71.5201ZM126.48 53.5201L128.09 53.5201C127.608 52.0566 127.071 50.6185 126.48 49.2081L126.48 53.5201ZM131.52 64.3743C131.09 60.9796 130.375 57.6733 129.402 54.4801L131.52 54.4801L131.52 64.3743ZM129.1 53.5201L131.52 53.5201L131.52 28.8002C131.52 26.4143 129.586 24.4802 127.2 24.4802L126.48 24.4802L126.48 46.8273C127.482 48.9915 128.358 51.2256 129.1 53.5201ZM12.4801 53.5201L14.8999 53.5201C15.6419 51.2256 16.5184 48.9916 17.5201 46.8274L17.5201 24.4801L16.8001 24.4801C14.4143 24.4801 12.4801 26.4143 12.4801 28.8002L12.4801 53.5201ZM115.2 131.52L90.4801 131.52L90.4801 129.1C92.7745 128.358 95.0084 127.482 97.1725 126.48L119.52 126.48L119.52 127.2C119.52 129.586 117.586 131.52 115.2 131.52ZM89.5201 131.52L89.5201 129.402C86.3268 130.375 83.0205 131.089 79.6258 131.52L89.5201 131.52ZM94.7916 126.48C93.3814 127.071 91.9434 127.608 90.4801 128.09L90.4801 126.48L94.7916 126.48ZM89.5201 128.397L89.5201 126.48L72.4801 126.48L72.4801 131.038C78.4091 130.991 84.1299 130.07 89.5201 128.397ZM96.9597 125.52L90.4801 125.52L90.4801 120.48L105.705 120.48C102.952 122.398 100.027 124.087 96.9597 125.52ZM89.5201 125.52L89.5201 120.48L72.4801 120.48L72.4801 125.52L89.5201 125.52ZM105.705 23.5202L90.4801 23.5202L90.4801 18.4801L96.9601 18.4801C100.028 19.9132 102.952 21.6024 105.705 23.5202ZM89.5201 23.5202L89.5201 18.4801L72.4801 18.4801L72.4801 23.5202L89.5201 23.5202ZM94.7921 17.5201L90.4801 17.5201L90.4801 15.9099C91.9435 16.3918 93.3817 16.9293 94.7921 17.5201ZM89.5201 17.5201L89.5201 15.6029C84.1299 13.9303 78.4091 13.0091 72.4801 12.9619L72.4801 17.5201L89.5201 17.5201ZM97.173 17.5201C95.0087 16.5184 92.7746 15.6418 90.4801 14.8998L90.4801 12.48L115.2 12.48C117.586 12.48 119.52 14.4141 119.52 16.8L119.52 17.5201L97.173 17.5201ZM89.5201 14.5982L89.5201 12.48L79.6257 12.48C83.0205 12.9106 86.3268 13.6248 89.5201 14.5982ZM53.5201 12.48L28.8002 12.48C26.4143 12.48 24.4802 14.4141 24.4802 16.8L24.4802 17.5201L46.8273 17.5201C48.9915 16.5184 51.2256 15.6419 53.5201 14.8998L53.5201 12.48ZM54.4801 14.5983L54.4801 12.48L64.3745 12.48C60.9797 12.9106 57.6734 13.6248 54.4801 14.5983ZM53.5201 15.9099C52.0566 16.3918 50.6185 16.9293 49.2081 17.5201L53.5201 17.5201L53.5201 15.9099ZM54.4801 17.5201L54.4801 15.6029C59.8702 13.9303 65.5911 13.0091 71.5201 12.9619L71.5201 17.5201L54.4801 17.5201ZM53.5201 18.4801L47.0401 18.4801C43.9723 19.9132 41.048 21.6024 38.2949 23.5202L53.5201 23.5202L53.5201 18.4801ZM54.4801 23.5202L54.4801 18.4801L71.5201 18.4801L71.5201 23.5202L54.4801 23.5202ZM53.5201 120.48L38.2954 120.48C41.0486 122.398 43.9727 124.087 47.0405 125.52L53.5201 125.52L53.5201 120.48ZM54.4801 125.52L54.4801 120.48L71.5201 120.48L71.5201 125.52L54.4801 125.52ZM53.5201 126.48L49.2086 126.48C50.6188 127.071 52.0568 127.608 53.5201 128.09L53.5201 126.48ZM54.4801 128.397L54.4801 126.48L71.5201 126.48L71.5201 131.038C65.591 130.991 59.8702 130.07 54.4801 128.397ZM53.5201 129.1C51.2257 128.358 48.9918 127.482 46.8277 126.48L24.4802 126.48L24.4802 127.2C24.4802 129.586 26.4143 131.52 28.8002 131.52L53.5201 131.52L53.5201 129.1ZM54.4801 131.52L54.4801 129.402C57.6734 130.375 60.9796 131.089 64.3744 131.52L54.4801 131.52ZM18.4801 99.1504L18.4801 119.52L23.5202 119.52L23.5202 107.358C21.6304 104.771 19.9426 102.028 18.4801 99.1504ZM36.6424 120.48L24.4802 120.48L24.4802 125.52L44.8498 125.52C41.9725 124.058 39.229 122.37 36.6424 120.48ZM99.1505 125.52L119.52 125.52L119.52 120.48L107.358 120.48C104.771 122.37 102.028 124.058 99.1505 125.52ZM120.48 107.358L120.48 119.52L125.52 119.52L125.52 99.1506C124.058 102.028 122.37 104.771 120.48 107.358ZM125.52 44.8494L125.52 24.4802L120.48 24.4802L120.48 36.6421C122.37 39.2287 124.058 41.9722 125.52 44.8494ZM107.358 23.5202L119.52 23.5202L119.52 18.4801L99.1508 18.4801C102.028 19.9426 104.772 21.6304 107.358 23.5202ZM44.8494 18.4801L24.4802 18.4801L24.4802 23.5202L36.6419 23.5202C39.2285 21.6304 41.9721 19.9426 44.8494 18.4801ZM23.5202 36.6419L23.5202 24.4801L18.4801 24.4801L18.4801 44.8495C19.9426 41.9722 21.6304 39.2286 23.5202 36.6419Z" fill="#FFCCCC"/>
<rect width="144" height="144" fill="url(#paint0_linear_2159_2663)"/>
<circle cx="71.9999" cy="71.9999" r="60" fill="#F8FAFC"/>
<path d="M90.5625 81.5626C90.5625 85.3089 87.5588 88.3126 83.8125 88.3126C80.0662 88.3126 77.0625 85.3089 77.0625 81.5626C77.0625 77.8164 80.1 74.8126 83.8125 74.8126C87.525 74.8126 90.5625 77.8501 90.5625 81.5626ZM60.1875 74.8126C56.475 74.8126 53.4375 77.8501 53.4375 81.5626C53.4375 85.2751 56.475 88.3126 60.1875 88.3126C63.9 88.3126 66.9375 85.3089 66.9375 81.5626C66.9375 77.8164 63.9338 74.8126 60.1875 74.8126ZM109.125 79.8751V90.0001C109.125 91.8564 107.606 93.3751 105.75 93.3751H102.375V96.7501C102.375 100.496 99.3712 103.5 95.625 103.5H48.375C44.6625 103.5 41.625 100.496 41.625 96.7501V93.3751H38.25C36.3937 93.3751 34.875 91.8564 34.875 90.0001V79.8751C34.875 78.0189 36.3937 76.5001 38.25 76.5001H41.625C41.625 63.4389 52.1888 52.8751 65.25 52.8751H68.625V48.5889C66.6 47.4414 65.25 45.2476 65.25 42.7501C65.25 39.0376 68.2875 36.0001 72 36.0001C75.7125 36.0001 78.75 39.0376 78.75 42.7501C78.75 45.2476 77.4 47.4414 75.375 48.5889V52.8751H78.75C91.8112 52.8751 102.375 63.4389 102.375 76.5001H105.75C107.606 76.5001 109.125 78.0189 109.125 79.8751ZM102.375 83.2501H95.625V76.5001C95.625 67.1851 88.065 59.6251 78.75 59.6251H65.25C55.935 59.6251 48.375 67.1851 48.375 76.5001V83.2501H41.625V86.6251H48.375V96.7501H95.625V86.6251H102.375V83.2501Z" fill="url(#paint1_linear_2159_2663)"/>
</g>
<defs>
<linearGradient id="paint0_linear_2159_2663" x1="0" y1="0" x2="144" y2="144" gradientUnits="userSpaceOnUse">
<stop stop-color="#9333EA"/>
<stop offset="1" stop-color="#2563EB"/>
</linearGradient>
<linearGradient id="paint1_linear_2159_2663" x1="34.875" y1="36.0001" x2="102.07" y2="109.914" gradientUnits="userSpaceOnUse">
<stop stop-color="#9333EA"/>
<stop offset="1" stop-color="#2563EB"/>
</linearGradient>
<clipPath id="clip0_2159_2663">
<rect width="144" height="144" rx="72" fill="white"/>
</clipPath>
</defs>
</svg>
